<svg width="1280" height="760" viewBox="0 0 1280 760" fill="none" xmlns="http://www.w3.org/2000/svg" role="img" aria-labelledby="title desc">
  <title id="title">商品详情展示</title>
  <desc id="desc">商品详情展示图</desc>
  <rect width="1280" height="760" fill="#F7F4ED"/>
  <rect x="72" y="52" width="1136" height="656" rx="28" fill="#FFFFFF" stroke="#D9CBB8" stroke-width="2"/>
  <rect x="118" y="112" width="470" height="500" rx="28" fill="#E5F1EA"/>
  <circle cx="353" cy="300" r="116" fill="#C4D9CB"/>
  <circle cx="310" cy="274" r="16" fill="#263B36"/>
  <circle cx="396" cy="274" r="16" fill="#263B36"/>
  <path d="M314 338C336 358 370 358 392 338" stroke="#263B36" stroke-width="10" stroke-linecap="round"/>
  <rect x="172" y="492" width="362" height="54" rx="17" fill="#FFFFFF"/>
  <text x="235" y="526" font-family="Arial, sans-serif" font-size="21" font-weight="700" fill="#263B36">精致全护服务详情</text>
  <text x="660" y="146" font-family="Arial, sans-serif" font-size="22" fill="#B35F3D">热门套餐</text>
  <text x="660" y="205" font-family="Arial, sans-serif" font-size="48" font-weight="800" fill="#263B36">精致全护</text>
  <text x="660" y="256" font-family="Arial, sans-serif" font-size="22" fill="#68746E">中长毛、换毛季、造型前护理推荐。</text>
  <text x="660" y="332" font-family="Arial, sans-serif" font-size="58" font-weight="800" fill="#B35F3D">¥169</text>
  <rect x="660" y="374" width="430" height="1" fill="#E4D8C9"/>
  <text x="660" y="430" font-family="Arial, sans-serif" font-size="23" font-weight="700" fill="#263B36">服务包含</text>
  <text x="690" y="476" font-family="Arial, sans-serif" font-size="21" fill="#4F5E58">• 全套洗护流程</text>
  <text x="690" y="522" font-family="Arial, sans-serif" font-size="21" fill="#4F5E58">• 深层梳毛去浮毛</text>
  <text x="690" y="568" font-family="Arial, sans-serif" font-size="21" fill="#4F5E58">• 皮毛状态记录</text>
  <rect x="660" y="618" width="188" height="54" rx="27" fill="#263B36"/>
  <text x="714" y="653" font-family="Arial, sans-serif" font-size="20" font-weight="700" fill="#FFFFFF">立即预约</text>
  <rect x="868" y="618" width="188" height="54" rx="27" fill="#F3E6D5" stroke="#D5BFA3"/>
  <text x="922" y="653" font-family="Arial, sans-serif" font-size="20" font-weight="700" fill="#263B36">电话咨询</text>
</svg>
