<svg width="1280" height="760" viewBox="0 0 1280 760" fill="none" xmlns="http://www.w3.org/2000/svg" role="img" aria-labelledby="title desc">
  <title id="title">个人中心展示</title>
  <desc id="desc">个人中心展示图</desc>
  <rect width="1280" height="760" fill="#EEF4F0"/>
  <rect x="72" y="52" width="1136" height="656" rx="28" fill="#FFFFFF" stroke="#C9D8D1" stroke-width="2"/>
  <rect x="112" y="96" width="286" height="568" rx="24" fill="#263B36"/>
  <circle cx="255" cy="194" r="56" fill="#DDEEE4"/>
  <text x="212" y="286" font-family="Arial, sans-serif" font-size="28" font-weight="800" fill="#FFFFFF">个人中心</text>
  <text x="166" y="332" font-family="Arial, sans-serif" font-size="19" fill="#CFE0D7">预约记录 · 宠物档案 · 消息通知</text>
  <rect x="152" y="400" width="206" height="48" rx="16" fill="#DDEEE4"/>
  <text x="208" y="431" font-family="Arial, sans-serif" font-size="19" font-weight="700" fill="#263B36">我的预约</text>
  <text x="184" y="498" font-family="Arial, sans-serif" font-size="19" fill="#D5E4DB">宠物档案</text>
  <text x="184" y="560" font-family="Arial, sans-serif" font-size="19" fill="#D5E4DB">护理记录</text>
  <rect x="454" y="108" width="682" height="118" rx="24" fill="#F8F1E8" stroke="#D8C5AD"/>
  <text x="490" y="158" font-family="Arial, sans-serif" font-size="30" font-weight="800" fill="#263B36">欢迎回来，小沐</text>
  <text x="490" y="196" font-family="Arial, sans-serif" font-size="20" fill="#68746E">下一次预约：2026-06-02 14:30 · 精致全护</text>
  <rect x="454" y="268" width="320" height="160" rx="24" fill="#E5F1EA" stroke="#BFD8C6"/>
  <text x="490" y="322" font-family="Arial, sans-serif" font-size="24" font-weight="800" fill="#263B36">宠物档案</text>
  <text x="490" y="366" font-family="Arial, sans-serif" font-size="20" fill="#68746E">长毛猫 · 4.2kg · 易紧张</text>
  <rect x="816" y="268" width="320" height="160" rx="24" fill="#F8F1E8" stroke="#D8C5AD"/>
  <text x="852" y="322" font-family="Arial, sans-serif" font-size="24" font-weight="800" fill="#263B36">护理提醒</text>
  <text x="852" y="366" font-family="Arial, sans-serif" font-size="20" fill="#68746E">耳后毛结需重点梳理</text>
  <rect x="454" y="468" width="682" height="152" rx="24" fill="#FFFFFF" stroke="#D8C5AD"/>
  <text x="490" y="522" font-family="Arial, sans-serif" font-size="24" font-weight="800" fill="#263B36">最近预约</text>
  <rect x="490" y="552" width="604" height="1" fill="#E4D8C9"/>
  <text x="490" y="596" font-family="Arial, sans-serif" font-size="20" fill="#4F5E58">精致全护 · 已确认 · 上海市普陀区陕西北路 1620 号</text>
</svg>
